<svg version="1.1" id="Layer_1" xmlns="http://www.w3.org/2000/svg" xmlns:xlink="http://www.w3.org/1999/xlink" x="0px" y="0px"
	 width="100%" viewBox="0 0 500 485" enable-background="new 0 0 500 485" xml:space="preserve">
<path fill="#251F21" opacity="1.000000" stroke="none" 
	d="
M2.000000,1.000000 
	C168.285675,1.000000 334.571350,1.000000 500.928528,1.000000 
	C500.928528,162.572662 500.928528,324.145386 500.928528,486.000000 
	C334.975189,486.000000 168.950241,486.000000 2.462213,485.537354 
	C1.999433,323.716461 1.999716,162.358231 2.000000,1.000000 
M255.027222,138.991089 
	C255.027222,138.991089 255.092102,138.958908 254.915833,138.299301 
	C251.105896,132.700592 246.407272,128.784821 238.667053,129.399521 
	C232.285812,128.728683 226.099289,130.128876 221.536942,134.325272 
	C214.647354,140.662201 208.605209,147.920471 201.744125,155.172180 
	C198.248688,162.105438 194.753250,169.038681 190.869019,176.612320 
	C189.009186,183.243439 187.149368,189.874542 185.082962,197.276596 
	C183.382080,199.151764 181.681183,201.026917 179.299881,203.246719 
	C171.893143,205.510086 164.486404,207.773468 156.674744,210.040634 
	C156.394897,210.101379 156.179428,210.253387 155.481171,210.783310 
	C155.283356,210.840500 155.085541,210.897675 154.205872,210.921402 
	C150.518646,212.172592 146.831421,213.423767 143.144196,214.674957 
	C143.305099,215.220047 143.466019,215.765137 143.626923,216.310226 
	C147.983200,216.432465 152.219406,215.949478 156.658066,213.101547 
	C157.108948,213.080170 157.559814,213.058807 158.564819,213.504440 
	C162.678619,212.248520 167.800858,214.896393 171.680710,210.082397 
	C172.121124,210.059036 172.561523,210.035675 173.579529,210.500977 
	C181.025177,209.666534 188.451904,208.489136 195.920853,208.076996 
	C207.489243,207.438644 219.085892,207.179291 230.672012,207.134613 
	C232.472153,207.127670 234.279984,209.113495 235.428116,210.683151 
	C226.655014,212.192139 217.881912,213.701111 208.316284,215.176270 
	C204.459854,216.237366 200.603409,217.298462 196.746964,218.359558 
	C196.877563,218.872360 197.008179,219.385147 197.138794,219.897949 
	C201.109894,218.938446 205.081009,217.978958 209.884293,217.001907 
	C224.881500,214.976532 239.878708,212.951157 255.788483,210.976288 
	C258.408875,210.745926 261.033997,210.276291 263.648773,210.328217 
	C273.036133,210.514633 282.504852,210.206985 291.778992,211.380569 
	C299.525146,212.360764 307.030640,215.198532 314.667847,217.113358 
	C316.723907,217.628860 318.871613,217.778809 321.547302,218.140930 
	C322.043030,218.401596 322.538727,218.662247 323.124664,219.637375 
	C324.635406,220.762817 325.996399,222.255539 327.685272,222.944229 
	C332.571381,224.936783 337.718353,226.319061 342.521271,228.478363 
	C347.911072,230.901520 353.161560,231.849091 358.648743,229.205734 
	C362.608276,227.298264 366.625336,225.462982 370.382446,223.205597 
	C371.889984,222.299835 372.770355,220.350159 374.037994,218.167786 
	C372.070709,216.571350 370.310272,214.554184 368.093872,213.464386 
	C363.186249,211.051315 358.049530,209.104172 352.993958,206.146225 
	C352.262695,204.408768 351.531433,202.671295 350.956573,200.031525 
	C350.308594,187.145096 349.562500,174.274109 344.999359,161.319138 
	C344.366577,160.165985 343.733826,159.012817 343.019897,157.926529 
	C343.019897,157.926529 343.088165,158.006531 343.136353,157.249542 
	C342.773468,156.640961 342.410583,156.032379 342.224518,154.808319 
	C341.461975,153.898346 340.699432,152.988373 339.356232,151.713852 
	C336.854675,148.081314 333.545441,145.914047 328.418457,145.730270 
	C325.949707,146.273026 323.480988,146.815796 320.477020,147.116577 
	C320.286407,147.071762 320.095795,147.026932 319.986511,146.251587 
	C318.903809,144.029678 317.971893,141.718201 316.714081,139.600296 
	C307.970123,124.877350 297.050201,121.791740 282.288422,130.104095 
	C274.414459,135.106598 268.730316,142.145279 263.262177,150.195740 
	C262.716064,151.125412 262.169952,152.055084 261.217529,152.456436 
	C260.005524,149.629105 258.793518,146.801758 257.456757,143.241470 
	C256.652130,141.801102 255.847488,140.360733 255.027222,138.991089 
M291.891449,233.386719 
	C291.902954,232.977463 291.914429,232.568222 291.555481,231.445892 
	C288.726074,231.415497 285.896667,231.385101 282.223572,231.530731 
	C280.788391,231.558868 279.353210,231.586990 277.389404,231.451736 
	C276.298157,233.402176 274.658600,235.237350 274.219757,237.324936 
	C272.967041,243.284149 272.011902,249.324783 271.338104,255.377716 
	C271.060974,257.867004 271.803162,260.469727 272.111725,263.679810 
	C271.999023,264.102722 271.886322,264.525635 271.063385,265.137268 
	C269.742676,270.086578 268.074280,274.976776 267.218811,280.005249 
	C266.610382,283.581543 267.097229,287.344208 267.142181,291.841522 
	C267.108246,293.200653 267.074310,294.559784 267.174713,296.623260 
	C269.279633,298.375427 271.285400,298.871307 273.917755,296.019958 
	C276.131134,296.019958 278.344482,296.019958 280.469788,296.019958 
	C281.174347,292.691895 281.769196,289.882141 282.989929,286.828156 
	C284.284637,282.395477 286.734650,282.387726 290.262543,285.600372 
	C292.197266,288.357208 294.131989,291.114044 296.148071,294.582336 
	C298.433044,295.389984 300.718018,296.197632 303.743073,297.008423 
	C304.474487,297.106445 305.205872,297.204498 306.184235,297.930328 
	C308.151459,297.781525 310.118652,297.632751 312.884155,297.266479 
	C316.179871,296.468872 319.475555,295.671295 323.499634,294.940582 
	C324.306366,294.241180 325.113068,293.541748 326.284119,292.290161 
	C329.177673,288.521271 332.071228,284.752380 335.611847,280.834808 
	C336.403198,279.704437 337.194519,278.574036 337.890015,277.580536 
	C339.646851,278.821777 341.221191,279.934052 342.950500,281.689148 
	C342.952393,282.128387 342.954285,282.567596 342.526672,283.538788 
	C342.974304,285.036926 343.421936,286.535095 344.065063,288.667084 
	C344.054901,289.107697 344.044739,289.548309 343.605469,290.390320 
	C343.982300,291.279083 344.359131,292.167877 344.885803,293.701324 
	C344.881165,294.142303 344.876495,294.583282 344.538605,295.348419 
	C345.019714,295.604034 345.500824,295.859650 346.853912,296.093719 
	C348.884613,296.147766 350.915314,296.201813 353.103485,296.823303 
	C354.088165,296.638367 355.072845,296.453400 356.660095,295.952911 
	C357.775299,294.302917 358.890503,292.652954 360.681458,290.830322 
	C361.435364,289.184784 362.189270,287.539215 363.075806,285.254486 
	C363.949982,283.782318 364.824127,282.310150 366.428772,280.877289 
	C367.638458,280.968811 368.848175,281.060333 370.517334,281.874573 
	C370.688843,283.580048 370.860382,285.285522 370.566498,287.506256 
	C371.262054,289.361267 371.957581,291.216309 372.841980,293.812378 
	C373.539246,294.656189 374.236511,295.500031 375.050446,296.831970 
	C375.716095,296.627411 376.381714,296.422852 377.768311,296.120209 
	C378.489441,296.196350 379.210571,296.272491 380.090973,296.903564 
	C381.082275,296.708405 382.073547,296.513245 383.807587,296.169434 
	C385.249878,295.043152 387.209137,294.212952 388.051178,292.742859 
	C393.832306,282.650055 399.376862,272.421814 405.003845,262.240631 
	C406.472076,259.584045 407.962433,256.939697 409.806091,253.638962 
	C405.728668,253.638962 402.519684,254.023926 399.444794,253.546097 
	C395.148468,252.878448 393.286224,254.567322 391.828186,258.490784 
	C389.351379,265.155701 386.182007,271.563263 382.777557,279.270020 
	C381.473206,269.738129 380.384186,261.779663 379.338257,254.136276 
	C372.099731,252.638901 366.952911,253.679123 364.487671,260.992645 
	C363.288208,264.550934 360.978271,267.734863 358.482147,270.998169 
	C357.218842,269.629730 355.955536,268.261292 354.344482,266.137115 
	C354.227905,264.759369 354.111328,263.381622 354.442688,261.475922 
	C354.097748,259.315643 353.752838,257.155396 353.193542,254.472595 
	C353.139282,254.292328 353.084991,254.112061 352.810333,253.176880 
	C348.343506,252.868073 343.873688,252.375061 339.413147,252.448563 
	C338.742279,252.459610 338.154572,255.137695 337.456757,256.546570 
	C336.719757,258.034576 335.897034,259.480103 334.643738,260.463623 
	C329.188904,252.277420 321.155182,250.301147 312.046509,251.353745 
	C302.847626,252.416779 296.472137,257.988159 290.388733,264.918396 
	C290.050446,262.325348 289.655640,259.738007 289.392090,257.137390 
	C289.185760,255.101135 289.142029,253.048401 288.956818,250.341583 
	C289.065491,249.914536 289.174164,249.487503 289.950989,248.817810 
	C290.630463,243.876282 291.309937,238.934738 291.891449,233.386719 
M184.460739,265.127533 
	C180.262329,263.952515 182.238510,260.667542 182.137482,258.150604 
	C182.015335,255.108109 182.088470,252.057755 182.044571,248.266693 
	C182.181870,247.538818 182.319153,246.810928 182.949326,245.990189 
	C182.974716,245.327484 183.000107,244.664764 183.018921,243.175537 
	C183.353836,240.980179 183.688751,238.784821 184.076828,236.240936 
	C180.435501,236.018646 177.229202,235.822906 173.856796,235.298492 
	C173.565262,235.393158 173.273727,235.487823 172.325195,235.702652 
	C171.886932,235.644745 171.448654,235.586823 170.843048,235.216705 
	C170.560196,235.310410 170.277359,235.404099 169.243729,235.687241 
	C168.475403,235.783539 167.707077,235.879837 166.424835,236.079895 
	C166.280746,236.380524 166.136673,236.681168 165.862549,237.662552 
	C159.825470,248.052567 153.788391,258.442566 147.538361,269.199066 
	C145.272110,257.759766 143.105286,246.822388 140.948120,235.933731 
	C134.366623,235.933731 128.581970,235.933731 122.509148,235.933731 
	C118.390800,255.828552 114.307053,275.556213 110.152718,295.624878 
	C114.965652,295.624878 119.383957,295.624878 123.898232,295.624878 
	C126.367508,283.884460 128.818756,272.229706 131.407745,259.920105 
	C134.271835,270.803223 136.865540,280.932404 139.659866,291.005920 
	C140.121964,292.671783 141.461639,294.094269 142.395767,295.629211 
	C144.340897,294.431976 146.286041,293.234741 148.680191,291.855804 
	C148.955017,291.623657 149.056915,291.331238 149.183044,290.305695 
	C152.461639,284.540588 155.740219,278.775452 159.648392,273.360535 
	C160.753281,275.571991 161.858170,277.783447 162.994186,280.650696 
	C162.903015,281.077454 162.811829,281.504211 162.078491,282.175476 
	C161.052414,284.414978 158.614792,286.567688 161.677841,289.963745 
	C161.415024,291.828888 161.152206,293.694031 160.823761,296.024963 
	C164.989975,296.024963 168.588364,296.256592 172.124176,295.887878 
	C173.226288,295.772949 174.159103,294.034668 175.840179,292.772278 
	C176.784088,289.682159 177.727982,286.592041 178.811722,283.044098 
	C180.165970,283.362946 181.552704,283.689423 183.304855,284.641022 
	C183.609879,285.537292 183.744263,286.545074 184.246002,287.312744 
	C190.046402,296.187653 203.571869,299.728149 213.190689,294.841705 
	C214.084167,294.387848 215.039917,293.317291 215.242157,292.377197 
	C215.912903,289.259338 216.252228,286.070160 216.774704,282.528748 
	C213.288651,283.581207 210.507355,284.715424 207.615524,285.237305 
	C199.760330,286.654877 194.665344,280.898895 196.809021,273.246063 
	C198.984879,265.478302 205.370560,261.734497 213.330399,263.605499 
	C215.201431,264.045288 217.037949,264.631989 219.350204,265.279938 
	C220.246063,261.368103 221.042419,257.890747 221.810394,254.537292 
	C207.769287,248.387421 192.012177,253.181076 184.460739,265.127533 
M253.526093,247.320251 
	C258.481842,247.320251 263.437561,247.320251 268.776154,247.320251 
	C269.245392,243.789383 269.730469,240.139557 270.411652,235.014069 
	C259.077728,235.014069 248.509323,235.132629 237.946671,234.938492 
	C234.958420,234.883560 234.347717,236.251785 233.968063,238.697189 
	C232.771561,246.404160 231.385345,254.081451 230.116959,261.777557 
	C228.263474,273.023682 226.448547,284.276184 224.581879,295.742920 
	C229.670654,295.742920 234.236984,295.742920 238.803925,295.742920 
	C240.076431,288.146027 241.303955,280.817780 242.566833,273.278442 
	C246.416199,273.278442 249.888855,273.274323 253.361511,273.279205 
	C263.492462,273.293457 263.496063,273.295227 264.458099,263.275543 
	C264.483856,263.007568 264.223267,262.712067 263.929871,262.059235 
	C257.675781,262.059235 251.262985,262.059235 244.519318,262.059235 
	C245.512680,256.931244 246.422913,252.232346 247.375381,247.315369 
	C249.265274,247.315369 250.902756,247.315369 253.526093,247.320251 
M361.920715,325.666840 
	C361.566071,329.295166 362.020172,332.656036 366.517426,332.905151 
	C368.347168,333.006531 370.250427,331.781372 372.120239,331.159790 
	C371.927185,330.763489 371.734100,330.367218 371.541046,329.970947 
	C369.620941,329.781677 367.700836,329.592438 365.780731,329.403168 
	C365.803070,328.935913 365.825439,328.468658 365.847778,328.001434 
	C367.257812,327.695587 368.699799,327.492126 370.071564,327.063782 
	C373.476074,326.000641 374.317139,321.141632 371.199463,320.498840 
	C368.377838,319.917114 365.146942,321.320374 361.682007,321.920135 
	C360.311951,319.202423 357.210602,319.184601 354.262085,320.852417 
	C350.752563,322.837494 350.015289,326.601593 351.244568,329.997253 
	C351.775421,331.463654 354.661194,332.507141 356.632721,332.850861 
	C357.705109,333.037811 359.103363,331.355621 360.492279,330.424164 
	C357.618591,329.575104 355.960938,329.085358 354.303314,328.595581 
	C354.925110,326.852203 355.183746,323.971802 356.253204,323.630249 
	C357.883759,323.109528 360.075165,324.345123 361.920715,325.666840 
M188.534378,323.036652 
	C188.897980,326.292664 189.261581,329.548676 189.625198,332.804688 
	C190.025940,333.009125 190.426682,333.213562 190.827423,333.417999 
	C192.399734,329.869019 193.972061,326.320038 195.544373,322.771027 
	C196.134735,323.001434 196.725098,323.231873 197.315460,323.462280 
	C196.939819,325.866791 196.440765,328.262329 196.265259,330.681335 
	C196.214020,331.387817 197.084534,332.161163 197.532547,332.903839 
	C198.293610,332.416809 199.593460,332.042419 199.722870,331.423370 
	C200.296371,328.679626 200.883636,325.845154 200.722153,323.087067 
	C200.656876,321.971832 198.754318,320.149017 197.578644,320.057953 
	C192.997360,319.703125 188.372314,319.913239 183.422226,319.913239 
	C182.852371,324.506958 182.346481,328.584991 181.840591,332.662994 
	C182.472229,332.863495 183.103882,333.063965 183.735519,333.264465 
	C184.437729,331.755066 185.209167,330.273224 185.824036,328.729065 
	C186.539078,326.933258 187.116959,325.082825 188.534378,323.036652 
M332.888123,323.871368 
	C333.355469,326.151978 333.392792,328.667999 334.461090,330.619690 
	C335.045807,331.687958 338.584961,332.498474 338.731812,332.242645 
	C340.861420,328.532654 342.641663,324.622070 344.505463,320.759491 
	C343.807098,320.363007 343.108704,319.966553 342.410339,319.570068 
	C340.788208,321.858307 339.166077,324.146545 337.444061,326.575684 
	C336.718903,324.348297 336.031647,322.237488 335.404968,320.312561 
	C331.741272,320.312561 328.567383,320.312561 325.191101,320.312561 
	C324.745117,323.290436 324.179932,326.056274 323.978699,328.848389 
	C323.883148,330.173981 324.482056,331.549622 324.766388,332.902588 
	C325.572906,331.686340 326.687042,330.570312 327.122467,329.233215 
	C328.059113,326.357056 327.689392,322.533997 332.888123,323.871368 
M140.989410,332.370209 
	C142.556030,332.481720 144.122650,332.593231 146.399887,332.755341 
	C142.361542,327.111023 143.150299,324.008301 148.481186,321.908020 
	C148.268188,325.590729 148.060837,329.175629 147.853485,332.760498 
	C148.270294,332.845947 148.687103,332.931366 149.103897,333.016815 
	C151.304138,328.806091 153.504364,324.595398 155.726181,320.343384 
	C151.676346,318.889648 146.177948,323.830994 143.802261,316.512177 
	C142.036240,318.399536 140.727600,319.798096 140.391830,320.156921 
	C140.391830,324.797424 140.391830,328.274658 140.989410,332.370209 
M131.937408,325.987518 
	C132.464706,326.887268 132.992004,327.786987 133.519302,328.686737 
	C132.009415,329.055054 130.508072,329.465179 128.986359,329.775513 
	C128.120132,329.952148 127.202217,329.899231 126.358406,330.133087 
	C126.247498,330.163788 126.327202,331.785736 126.507729,331.826202 
	C128.529251,332.278870 130.800827,333.257355 132.578842,332.709900 
	C134.497574,332.119141 136.484314,330.330017 137.419678,328.532074 
	C137.926987,327.556946 136.608459,325.228455 135.566818,323.959106 
	C134.417557,322.558624 132.642212,321.671936 131.139587,320.561462 
	C131.237350,320.122223 131.335098,319.683014 131.432861,319.243805 
	C133.602600,318.948822 135.772339,318.653839 137.942078,318.358856 
	C138.062119,317.845032 138.182159,317.331177 138.302185,316.817352 
	C136.458755,316.381073 134.316498,315.149719 132.844910,315.702820 
	C130.848907,316.452972 128.805603,318.269836 127.790413,320.168091 
	C126.108788,323.312500 129.104507,324.366180 131.937408,325.987518 
M309.287689,315.963257 
	C305.863678,315.121735 302.450165,314.869080 300.591248,318.589478 
	C298.630707,322.513245 301.584534,324.225189 304.379913,325.975494 
	C305.078369,326.412811 305.919983,327.981689 305.703339,328.261230 
	C305.092285,329.049622 304.013184,329.755768 303.029694,329.903717 
	C301.807220,330.087616 300.495758,329.679840 299.222748,329.527588 
	C298.971588,329.844513 298.720459,330.161469 298.469330,330.478394 
	C299.402588,331.310150 300.580200,333.006775 301.226837,332.824097 
	C304.038239,332.029724 306.936432,331.017456 309.246552,329.324799 
	C309.861969,328.873901 308.921356,325.465149 307.931335,323.896454 
	C306.976807,322.384094 305.035492,321.494568 303.527679,320.331421 
	C303.757507,319.856415 303.987335,319.381409 304.217163,318.906403 
	C305.624847,318.906403 307.120758,319.190491 308.404633,318.791809 
	C309.091797,318.578400 309.413696,317.188782 309.287689,315.963257 
M177.021561,332.741364 
	C182.156403,329.635010 179.225128,324.391113 181.258240,319.997192 
	C179.044876,319.997192 177.744400,320.043884 176.448196,319.989166 
	C170.734833,319.747986 168.131531,322.382690 168.181046,328.395844 
	C168.212921,332.266632 170.172958,333.284546 177.021561,332.741364 
M216.983307,321.513184 
	C216.586548,323.973450 216.000809,326.423584 215.868500,328.897980 
	C215.796616,330.242401 216.495789,331.627991 216.847198,332.995026 
	C217.627808,331.779327 218.554550,330.631317 219.156189,329.332703 
	C220.164001,327.157349 220.964523,324.885956 221.852280,322.654999 
	C222.469910,322.866974 223.087540,323.078979 223.705170,323.290955 
	C223.508881,326.432373 223.312592,329.573792 223.116318,332.715210 
	C223.777649,332.909027 224.438980,333.102844 225.100311,333.296661 
	C225.726089,331.721710 226.857040,330.149872 226.866669,328.571167 
	C226.883789,325.763214 226.264755,322.943451 225.764069,320.155151 
	C225.723251,319.927856 224.533325,319.744781 223.907547,319.813995 
	C221.694519,320.058899 219.494614,320.422394 216.983307,321.513184 
M231.288147,332.412018 
	C234.266205,333.124390 237.314713,334.040802 239.030869,329.912811 
	C236.706192,329.723969 234.791061,329.568420 232.875931,329.412872 
	C232.884079,328.994110 232.892242,328.575317 232.900391,328.156555 
	C234.129837,327.834503 235.639572,327.849518 236.524734,327.113464 
	C237.945480,325.932037 238.953018,324.253693 240.135178,322.785309 
	C238.468155,321.822998 236.802582,320.049530 235.133865,320.046570 
	C229.553452,320.036652 227.337585,326.176086 231.288147,332.412018 
M320.267212,329.669830 
	C318.651520,329.669830 317.035828,329.669830 315.420135,329.669830 
	C315.411743,329.151611 315.403351,328.633362 315.394958,328.115143 
	C316.826965,327.787018 318.519012,327.823517 319.623230,327.035919 
	C320.922089,326.109497 322.641235,324.329193 322.468689,323.174744 
	C322.283295,321.934662 319.964264,319.971191 318.841461,320.135529 
	C316.661194,320.454620 313.675293,321.548492 312.841034,323.225647 
	C311.752655,325.413696 311.587494,328.840912 312.547852,331.082611 
	C313.936951,334.325134 319.176392,333.496033 320.267212,329.669830 
M273.144043,320.577820 
	C272.811768,324.301422 272.104767,328.066528 272.507965,331.708740 
	C272.576996,332.332062 277.383575,332.456848 280.008881,332.746155 
	C280.454132,332.795227 280.936249,332.509796 281.752411,332.280029 
	C282.359314,328.337616 282.976807,324.326294 283.687531,319.709625 
	C276.893616,320.489075 281.588165,328.854950 275.198425,329.736664 
	C275.394958,327.441040 275.823059,325.403748 275.642090,323.422058 
	C275.536713,322.268463 274.455139,321.204041 273.144043,320.577820 
M166.640961,321.274506 
	C164.057266,321.182251 160.513611,320.018188 159.125793,321.261169 
	C157.269043,322.924194 156.394608,326.472504 156.471680,329.172028 
	C156.509964,330.512787 159.455292,332.322479 161.383362,332.868927 
	C162.733292,333.251465 164.587524,331.854553 166.216522,331.252380 
	C166.026093,330.857666 165.835663,330.462982 165.645248,330.068268 
	C163.731140,329.808563 161.817032,329.548859 159.902924,329.289154 
	C166.650269,325.819977 166.650269,325.819977 166.640961,321.274506 
M269.754517,327.858276 
	C269.940155,324.635529 271.244263,320.867188 266.255341,320.007721 
	C262.112549,319.294037 259.435211,321.408630 258.225922,325.087341 
	C257.220734,328.145142 257.675720,331.403015 261.132355,332.621246 
	C264.891754,333.946198 268.028870,332.742828 269.754517,327.858276 
M249.968369,325.835907 
	C249.887314,327.653412 249.683289,329.478668 249.797424,331.283813 
	C249.833359,331.852081 250.669861,332.723785 251.236099,332.807709 
	C251.835999,332.896576 252.940964,332.370728 253.154190,331.842499 
	C255.244125,326.664795 257.193878,321.430511 259.183441,316.212280 
	C259.005341,315.951355 258.827240,315.690430 258.649170,315.429504 
	C256.664612,317.345673 254.680084,319.261841 253.019455,320.865295 
	C251.425446,319.037354 249.945908,317.340668 248.466370,315.644012 
	C247.976624,316.020142 247.486862,316.396301 246.997116,316.772430 
	C247.954102,319.525391 248.911072,322.278351 249.968369,325.835907 
M204.145279,320.552795 
	C203.575638,323.631012 202.863022,326.693481 202.520584,329.796783 
	C202.413239,330.769592 203.302216,331.852356 203.735138,332.884796 
	C204.486374,332.184113 205.742706,331.584503 205.906433,330.766266 
	C206.929977,325.650543 207.709534,320.485992 208.596176,315.180267 
	C203.585419,314.250671 205.337860,318.114685 204.145279,320.552795 
M285.585510,326.673035 
	C285.456818,327.151581 285.201508,327.635773 285.222656,328.107605 
	C285.293671,329.692566 285.463226,331.273132 285.595032,332.855377 
	C286.556366,331.635803 287.787811,330.540558 288.419006,329.169037 
	C289.509369,326.799896 288.833313,323.340820 292.744568,322.844147 
	C293.016632,322.809601 293.493652,321.544586 293.290253,321.229248 
	C292.919128,320.653870 292.156738,320.125549 291.475067,319.988739 
	C286.608124,319.011871 285.533386,321.834839 285.585510,326.673035 
M346.607361,320.185486 
	C345.695801,324.264008 344.784271,328.342529 343.872742,332.421051 
	C344.302094,332.691437 344.731445,332.961792 345.160828,333.232178 
	C346.107483,332.512238 347.660858,331.945648 347.888763,331.044067 
	C348.616577,328.164825 348.987549,325.169830 349.177307,322.199158 
	C349.221375,321.508850 348.000977,320.737793 346.607361,320.185486 
M213.923615,322.658356 
	C213.445465,321.772919 212.967316,320.887512 212.489182,320.002075 
	C211.877777,320.404236 210.823563,320.719971 210.725525,321.222351 
	C209.986816,325.007507 209.436157,328.829376 208.826736,332.639771 
	C209.295166,332.876923 209.763611,333.114044 210.232040,333.351196 
	C211.079956,332.347137 212.342529,331.466705 212.686707,330.312439 
	C213.338028,328.128082 213.462021,325.786438 213.923615,322.658356 
z"/>
<path fill="#514C4D" opacity="1.000000" stroke="none" 
	d="
M1.500000,1.000000 
	C1.999716,162.358231 1.999433,323.716461 1.999573,485.537354 
	C1.666663,484.666656 1.044973,483.333893 1.042412,481.999908 
	C0.986737,453.000031 1.000000,424.000000 1.000000,395.000000 
	C1.000000,263.666656 1.000000,132.333328 1.500000,1.000000 
z"/>
<path fill="#F9F8F7" opacity="1.000000" stroke="none" 
	d="
M148.231171,292.037506 
	C146.286041,293.234741 144.340897,294.431976 142.395767,295.629211 
	C141.461639,294.094269 140.121964,292.671783 139.659866,291.005920 
	C136.865540,280.932404 134.271835,270.803223 131.407745,259.920105 
	C128.818756,272.229706 126.367508,283.884460 123.898232,295.624878 
	C119.383957,295.624878 114.965652,295.624878 110.152718,295.624878 
	C114.307053,275.556213 118.390800,255.828552 122.509148,235.933731 
	C128.581970,235.933731 134.366623,235.933731 140.948120,235.933731 
	C143.105286,246.822388 145.272110,257.759766 147.538361,269.199066 
	C153.788391,258.442566 159.825470,248.052567 166.136490,237.207733 
	C166.673187,236.552933 166.849289,236.294006 166.938751,235.976135 
	C167.707077,235.879837 168.475403,235.783539 169.869827,235.706024 
	C170.667419,235.659515 170.838898,235.594208 171.010391,235.528915 
	C171.448654,235.586823 171.886932,235.644745 172.909576,235.753479 
	C173.670288,235.745270 173.846588,235.686218 174.022903,235.627182 
	C177.229202,235.822906 180.435501,236.018646 184.076828,236.240936 
	C183.688751,238.784821 183.353836,240.980179 182.825104,243.797668 
	C182.573013,244.974213 182.514740,245.528625 182.456451,246.083054 
	C182.319153,246.810928 182.181870,247.538818 181.838806,248.970459 
	C181.219498,252.636536 180.832672,255.602844 180.387711,258.560425 
	C178.658295,270.054962 176.910400,281.546722 175.169403,293.039520 
	C174.159103,294.034668 173.226288,295.772949 172.124176,295.887878 
	C168.588364,296.256592 164.989975,296.024963 160.823761,296.024963 
	C161.152206,293.694031 161.415024,291.828888 161.797791,289.184875 
	C162.185379,286.247681 162.453033,284.089325 162.720673,281.930969 
	C162.811829,281.504211 162.903015,281.077454 163.184418,279.987366 
	C164.242401,273.215698 165.110184,267.107391 166.115845,260.942871 
	C166.195572,260.949097 166.137421,261.011536 165.722870,261.010010 
	C163.250580,264.967468 161.134689,268.988892 159.018799,273.010345 
	C155.740219,278.775452 152.461639,284.540588 148.852142,290.728394 
	C148.213150,291.377350 148.116455,291.672821 148.231171,292.037506 
z"/>
<path fill="#F9F8F7" opacity="1.000000" stroke="none" 
	d="
M365.698273,280.837982 
	C364.824127,282.310150 363.949982,283.782318 362.721497,285.742676 
	C361.580017,287.821564 360.792847,289.412262 360.005676,291.002960 
	C358.890503,292.652954 357.775299,294.302917 355.976532,296.004272 
	C354.510651,296.122406 353.728333,296.189117 352.946014,296.255859 
	C350.915314,296.201813 348.884613,296.147766 346.249817,295.906006 
	C345.387756,295.486938 345.129791,295.255585 344.871826,295.024261 
	C344.876495,294.583282 344.881165,294.142303 344.888733,293.058044 
	C344.605957,291.606171 344.320282,290.797546 344.034607,289.988922 
	C344.044739,289.548309 344.054901,289.107697 344.039429,287.980530 
	C343.661285,285.864929 343.308746,284.435883 342.956177,283.006836 
	C342.954285,282.567596 342.952393,282.128387 342.966431,280.950195 
	C341.633270,271.583740 340.284119,262.956238 338.872894,253.931793 
	C343.876099,253.931793 348.453400,253.931793 353.030670,253.931793 
	C353.084991,254.112061 353.139282,254.292328 353.187256,255.127167 
	C353.452209,257.855774 353.723511,259.929810 353.994751,262.003876 
	C354.111328,263.381622 354.227905,264.759369 354.435730,266.910339 
	C354.827087,270.827576 355.127167,273.971619 355.561340,278.520142 
	C357.200226,275.145874 358.185638,273.117065 359.171051,271.088257 
	C360.978271,267.734863 363.288208,264.550934 364.487671,260.992645 
	C366.952911,253.679123 372.099731,252.638901 379.338257,254.136276 
	C380.384186,261.779663 381.473206,269.738129 382.777557,279.270020 
	C386.182007,271.563263 389.351379,265.155701 391.828186,258.490784 
	C393.286224,254.567322 395.148468,252.878448 399.444794,253.546097 
	C402.519684,254.023926 405.728668,253.638962 409.806091,253.638962 
	C407.962433,256.939697 406.472076,259.584045 405.003845,262.240631 
	C399.376862,272.421814 393.832306,282.650055 388.051178,292.742859 
	C387.209137,294.212952 385.249878,295.043152 383.049500,296.145203 
	C381.504822,296.196838 380.718262,296.272736 379.931702,296.348633 
	C379.210571,296.272491 378.489441,296.196350 377.055634,296.066589 
	C375.873230,296.123230 375.403503,296.233551 374.933777,296.343872 
	C374.236511,295.500031 373.539246,294.656189 372.807007,293.083588 
	C372.191956,290.566864 371.611938,288.778931 371.031921,286.990997 
	C370.860382,285.285522 370.688843,283.580048 370.347412,281.201904 
	C369.647186,279.058899 369.116943,277.588531 368.311676,275.355499 
	C367.280609,277.518524 366.489441,279.178253 365.698273,280.837982 
z"/>
<path fill="#F8F8F6" opacity="1.000000" stroke="none" 
	d="
M253.033157,247.317810 
	C250.902756,247.315369 249.265274,247.315369 247.375381,247.315369 
	C246.422913,252.232346 245.512680,256.931244 244.519318,262.059235 
	C251.262985,262.059235 257.675781,262.059235 263.929871,262.059235 
	C264.223267,262.712067 264.483856,263.007568 264.458099,263.275543 
	C263.496063,273.295227 263.492462,273.293457 253.361511,273.279205 
	C249.888855,273.274323 246.416199,273.278442 242.566833,273.278442 
	C241.303955,280.817780 240.076431,288.146027 238.803925,295.742920 
	C234.236984,295.742920 229.670654,295.742920 224.581879,295.742920 
	C226.448547,284.276184 228.263474,273.023682 230.116959,261.777557 
	C231.385345,254.081451 232.771561,246.404160 233.968063,238.697189 
	C234.347717,236.251785 234.958420,234.883560 237.946671,234.938492 
	C248.509323,235.132629 259.077728,235.014069 270.411652,235.014069 
	C269.730469,240.139557 269.245392,243.789383 268.776154,247.320251 
	C263.437561,247.320251 258.481842,247.320251 253.033157,247.317810 
z"/>
<path fill="#F9F8F7" opacity="1.000000" stroke="none" 
	d="
M291.186005,265.103882 
	C296.472137,257.988159 302.847626,252.416779 312.046509,251.353745 
	C321.155182,250.301147 329.188904,252.277420 334.883270,261.128021 
	C337.949524,268.213165 336.022736,274.594757 334.964783,280.983490 
	C332.071228,284.752380 329.177673,288.521271 325.784180,292.623169 
	C324.446564,293.595367 323.608887,294.234497 322.771240,294.873657 
	C319.475555,295.671295 316.179871,296.468872 312.051880,297.289825 
	C309.458862,297.309631 307.698059,297.306091 305.937286,297.302521 
	C305.205872,297.204498 304.474487,297.106445 303.133423,296.756287 
	C300.371460,295.626373 298.219086,294.748627 296.066711,293.870880 
	C294.131989,291.114044 292.197266,288.357208 290.101807,284.899658 
	C290.356079,277.833954 290.771027,271.468903 291.186005,265.103882 
M319.964203,263.354523 
	C310.864990,259.810760 304.461060,264.237549 302.503632,275.506378 
	C301.806915,279.517303 302.246643,283.444214 306.229218,285.483948 
	C310.364594,287.601959 314.572479,287.420654 318.254303,283.981964 
	C323.402527,279.173676 324.502747,270.030273 319.964203,263.354523 
z"/>
<path fill="#EBC348" opacity="1.000000" stroke="none" 
	d="
M157.079666,210.036850 
	C164.486404,207.773468 171.893143,205.510086 180.040298,203.102570 
	C187.121521,201.606461 193.462311,200.254517 200.157532,199.059418 
	C201.627914,199.329025 202.802917,199.728470 203.851212,199.512619 
	C230.959305,193.930588 258.299194,192.742218 285.843933,194.922546 
	C287.532593,195.056229 289.292908,194.284790 291.445648,193.907501 
	C298.931732,194.788986 305.992004,195.697449 313.369843,196.717712 
	C314.132599,196.857925 314.577850,196.886337 315.231201,197.100143 
	C315.977539,197.351837 316.515778,197.418106 317.364349,197.615219 
	C318.115479,197.831894 318.556244,197.917725 319.001495,198.228973 
	C319.005951,198.454376 319.103363,198.894653 318.669189,198.923309 
	C311.997314,197.985123 312.971497,202.356995 312.999329,206.447968 
	C313.001129,208.649979 313.001129,210.431076 313.001129,212.202332 
	C304.708557,210.587234 297.002136,209.249985 289.371490,207.568588 
	C268.827362,203.041672 247.969315,202.188339 227.049545,202.085709 
	C225.703690,202.079117 224.351883,203.283707 222.557739,204.005676 
	C216.335373,204.460754 210.519180,204.533722 204.789322,205.274475 
	C194.166901,206.647781 183.594925,208.411301 173.001938,210.012314 
	C172.561523,210.035675 172.121124,210.059036 170.960022,210.132874 
	C166.163132,211.134720 162.086914,212.086075 158.010696,213.037430 
	C157.559814,213.058807 157.108948,213.080170 156.234161,212.791397 
	C155.502747,211.972443 155.195236,211.463638 154.887726,210.954834 
	C155.085541,210.897675 155.283356,210.840500 155.964951,210.675842 
	C156.754120,210.504120 156.964432,210.326950 157.079666,210.036850 
z"/>
<path fill="#F8F8F6" opacity="1.000000" stroke="none" 
	d="
M185.320160,265.187897 
	C192.012177,253.181076 207.769287,248.387421 221.810394,254.537292 
	C221.042419,257.890747 220.246063,261.368103 219.350204,265.279938 
	C217.037949,264.631989 215.201431,264.045288 213.330399,263.605499 
	C205.370560,261.734497 198.984879,265.478302 196.809021,273.246063 
	C194.665344,280.898895 199.760330,286.654877 207.615524,285.237305 
	C210.507355,284.715424 213.288651,283.581207 216.774704,282.528748 
	C216.252228,286.070160 215.912903,289.259338 215.242157,292.377197 
	C215.039917,293.317291 214.084167,294.387848 213.190689,294.841705 
	C203.571869,299.728149 190.046402,296.187653 184.246002,287.312744 
	C183.744263,286.545074 183.609879,285.537292 183.187210,283.878845 
	C183.819763,277.140442 184.569962,271.164154 185.320160,265.187897 
z"/>
<path fill="#F9F8F7" opacity="1.000000" stroke="none" 
	d="
M289.282837,249.060471 
	C289.174164,249.487503 289.065491,249.914536 288.758148,250.990631 
	C286.494324,263.450592 284.429169,275.261475 282.364044,287.072357 
	C281.769196,289.882141 281.174347,292.691895 280.469788,296.019958 
	C278.344482,296.019958 276.131134,296.019958 273.064392,295.964417 
	C270.487457,295.912201 268.763885,295.915558 267.040344,295.918915 
	C267.074310,294.559784 267.108246,293.200653 267.370422,291.140656 
	C268.990356,281.942719 270.382019,273.445618 271.773621,264.948547 
	C271.886322,264.525635 271.999023,264.102722 272.354248,263.056305 
	C274.370544,252.160233 276.144287,241.887680 277.918030,231.615112 
	C279.353210,231.586990 280.788391,231.558868 283.064941,231.599197 
	C286.579498,231.831436 289.252716,231.995209 291.925903,232.158966 
	C291.914429,232.568222 291.902954,232.977463 291.725555,234.018066 
	C290.800720,239.453094 290.041779,244.256790 289.282837,249.060471 
z"/>
<path fill="#C03D22" opacity="1.000000" stroke="none" 
	d="
M185.289536,196.505661 
	C187.149368,189.874542 189.009186,183.243439 191.376266,176.202728 
	C192.642990,174.750565 193.540619,173.781387 194.139679,172.653641 
	C198.245346,164.924652 200.343674,163.963303 208.669495,166.155258 
	C212.903793,167.270050 214.081406,169.638382 213.191513,174.235657 
	C212.569504,177.449051 212.429382,180.755707 212.045685,184.396484 
	C211.005615,187.169342 209.993881,189.566422 208.561005,191.933685 
	C200.523087,193.437790 192.906311,194.971725 185.289536,196.505661 
z"/>
<path fill="#EFC849" opacity="1.000000" stroke="none" 
	d="
M223.002853,203.924896 
	C224.351883,203.283707 225.703690,202.079117 227.049545,202.085709 
	C247.969315,202.188339 268.827362,203.041672 289.371490,207.568588 
	C297.002136,209.249985 304.708557,210.587234 313.001129,212.202332 
	C313.001129,210.431076 313.001129,208.649979 313.350525,206.489960 
	C315.465820,206.746872 317.231720,207.382706 319.061279,208.325195 
	C319.756104,209.084076 320.387268,209.536301 321.400055,210.003052 
	C323.521790,210.343643 325.261963,210.669693 327.342590,211.152039 
	C339.455292,215.530380 351.227509,219.752441 362.735413,224.202713 
	C355.826263,229.222580 349.144989,229.916595 341.566803,226.017532 
	C335.720306,223.009430 329.235474,221.241974 323.034454,218.922897 
	C322.538727,218.662247 322.043030,218.401596 321.026978,217.844116 
	C308.002838,214.375870 295.659821,209.920059 282.958008,208.329178 
	C263.100586,205.842087 243.000275,205.294266 223.002853,203.924896 
z"/>
<path fill="#CF5E42" opacity="1.000000" stroke="none" 
	d="
M202.202896,154.787170 
	C208.605209,147.920471 214.647354,140.662201 221.536942,134.325272 
	C226.099289,130.128876 232.285812,128.728683 238.852386,130.097992 
	C239.074692,132.560059 239.111649,134.323669 238.988785,136.353577 
	C238.529343,137.375763 238.229691,138.131638 237.578949,138.955200 
	C233.695953,142.562256 229.603531,145.707794 226.771606,149.738876 
	C223.084747,154.986847 220.398438,160.937714 217.226364,166.150024 
	C216.405838,163.662720 216.220062,160.575287 214.763184,159.760437 
	C210.867828,157.581680 206.426987,156.378189 202.202896,154.787170 
z"/>
<path fill="#EBC348" opacity="1.000000" stroke="none" 
	d="
M263.851196,149.932526 
	C268.730316,142.145279 274.414459,135.106598 282.894043,130.100815 
	C283.650787,130.166245 283.829590,130.205063 283.945068,130.312164 
	C284.057922,130.416855 284.195557,130.698456 284.169983,130.719803 
	C281.850372,132.655396 279.516083,134.573364 276.204803,137.296936 
	C281.106873,139.851105 285.149994,141.957718 289.087524,144.396545 
	C286.258484,150.132812 283.535034,155.536896 280.566711,161.105713 
	C280.176727,161.829987 280.031525,162.389511 279.684448,163.155487 
	C279.348969,163.916595 279.215363,164.471268 278.903564,165.055405 
	C278.725403,165.084885 278.371063,165.154694 278.045593,165.247284 
	C276.715698,166.125336 275.711273,166.910812 274.388275,167.945389 
	C272.209961,162.650970 267.713776,162.444336 263.228210,161.917572 
	C261.644470,161.731583 260.173737,160.583176 258.670258,159.847839 
	C258.689087,159.821533 258.753784,159.820023 259.115479,159.702362 
	C259.942444,158.215591 260.407684,156.846481 260.875092,155.250702 
	C261.091797,154.637665 261.306305,154.251282 261.878479,153.854248 
	C262.774475,152.539902 263.312836,151.236221 263.851196,149.932526 
z"/>
<path fill="#E09B39" opacity="1.000000" stroke="none" 
	d="
M362.999756,223.974503 
	C351.227509,219.752441 339.455292,215.530380 327.595917,210.902222 
	C328.526642,207.979385 329.544495,205.462646 330.718597,202.559555 
	C331.911133,202.919113 333.891357,203.761032 335.951172,204.066788 
	C337.919373,204.358978 339.970367,204.093170 342.371033,204.063187 
	C346.173492,205.024811 349.589844,205.995911 353.006226,206.966995 
	C358.049530,209.104172 363.186249,211.051315 368.093872,213.464386 
	C370.310272,214.554184 372.070709,216.571350 373.623962,218.583023 
	C369.806549,220.657013 366.403168,222.315765 362.999756,223.974503 
z"/>
<path fill="#443527" opacity="1.000000" stroke="none" 
	d="
M222.557739,204.005692 
	C243.000275,205.294266 263.100586,205.842087 282.958008,208.329178 
	C295.659821,209.920059 308.002838,214.375870 320.741974,217.821930 
	C318.871613,217.778809 316.723907,217.628860 314.667847,217.113358 
	C307.030640,215.198532 299.525146,212.360764 291.778992,211.380569 
	C282.504852,210.206985 273.036133,210.514633 263.648773,210.328217 
	C261.033997,210.276291 258.408875,210.745926 255.267029,210.570114 
	C252.922058,209.801880 251.086380,209.085892 249.277405,209.147949 
	C244.873093,209.299088 240.481171,209.811142 236.084259,210.177826 
	C234.279984,209.113495 232.472153,207.127670 230.672012,207.134613 
	C219.085892,207.179291 207.489243,207.438644 195.920853,208.076996 
	C188.451904,208.489136 181.025177,209.666534 173.290741,210.256653 
	C183.594925,208.411301 194.166901,206.647781 204.789322,205.274475 
	C210.519180,204.533722 216.335373,204.460754 222.557739,204.005692 
z"/>
<path fill="#E0AA3E" opacity="1.000000" stroke="none" 
	d="
M344.966736,162.009598 
	C349.562500,174.274109 350.308594,187.145096 350.510376,200.409866 
	C344.770905,199.501556 339.477631,198.214890 334.163696,196.465668 
	C333.914398,190.277176 333.685760,184.551239 333.682007,178.492325 
	C337.122650,175.306030 340.450165,172.564301 343.482422,169.527740 
	C344.333282,168.675674 344.410614,166.974640 344.668121,165.629593 
	C344.894470,164.447220 344.876709,163.218079 344.966736,162.009598 
z"/>
<path fill="#E6B944" opacity="1.000000" stroke="none" 
	d="
M289.193085,144.064346 
	C285.149994,141.957718 281.106873,139.851105 276.204803,137.296936 
	C279.516083,134.573364 281.850372,132.655396 284.169983,130.719803 
	C284.195557,130.698456 284.057922,130.416855 283.945068,130.312164 
	C283.829590,130.205063 283.650787,130.166245 283.234741,130.041290 
	C297.050201,121.791740 307.970123,124.877350 316.714081,139.600296 
	C317.971893,141.718201 318.903809,144.029678 319.666016,146.449982 
	C317.566711,144.759430 315.787933,142.870514 313.843201,140.689774 
	C307.425659,133.119415 303.926880,132.105286 297.651825,136.015900 
	C294.642822,138.819092 291.917938,141.441711 289.193085,144.064346 
z"/>
<path fill="#413125" opacity="1.000000" stroke="none" 
	d="
M185.186249,196.891129 
	C192.906311,194.971725 200.523087,193.437790 208.653992,192.283325 
	C209.832443,193.018814 210.532471,193.737473 211.155716,193.676086 
	C219.708282,192.833954 228.273712,192.051270 236.780457,190.858093 
	C239.298843,190.504852 241.644547,188.920471 244.327728,187.854004 
	C245.048935,187.601807 245.511780,187.395828 246.444641,187.213211 
	C254.954819,187.358734 262.994995,187.480896 271.256592,187.724930 
	C271.981964,187.892029 272.485901,187.937256 272.994202,188.370636 
	C273.005157,189.793839 273.011719,190.828873 272.554199,191.941650 
	C259.835327,192.393799 247.523254,192.162033 235.342224,193.315048 
	C223.426331,194.442963 211.644043,196.982605 199.803116,198.902588 
	C193.462311,200.254517 187.121521,201.606461 180.380508,202.930237 
	C181.681183,201.026917 183.382080,199.151764 185.186249,196.891129 
z"/>
<path fill="#AB3820" opacity="1.000000" stroke="none" 
	d="
M261.520813,153.864899 
	C261.306305,154.251282 261.091797,154.637665 260.598206,155.489243 
	C259.797363,157.242966 259.275574,158.531494 258.753784,159.820023 
	C258.753784,159.820023 258.689087,159.821533 258.385040,159.998901 
	C254.411972,167.819519 250.742935,175.462738 247.049896,182.700928 
	C247.578339,176.679504 251.144867,171.859467 249.294739,165.398361 
	C247.300980,158.435837 247.821701,150.780594 246.838470,143.482391 
	C246.589661,141.635605 245.120636,139.471817 243.560471,138.497253 
	C242.839340,138.046799 240.551453,140.104584 238.725128,140.835785 
	C238.294250,140.060089 238.112152,139.473801 237.930054,138.887512 
	C238.229691,138.131638 238.529343,137.375763 239.383942,136.310593 
	C245.699860,133.350067 250.439529,135.931381 255.092102,138.958908 
	C255.092102,138.958908 255.027222,138.991089 255.031235,139.337357 
	C255.884003,141.113892 256.732758,142.544159 257.581512,143.974426 
	C258.793518,146.801758 260.005524,149.629105 261.426361,152.943787 
	C261.635193,153.431122 261.520813,153.864899 261.520813,153.864899 
z"/>
<path fill="#C5462B" opacity="1.000000" stroke="none" 
	d="
M201.973511,154.979675 
	C206.426987,156.378189 210.867828,157.581680 214.763184,159.760437 
	C216.220062,160.575287 216.405838,163.662720 217.209839,166.507431 
	C215.523666,172.874176 213.798843,178.447433 212.074020,184.020706 
	C212.429382,180.755707 212.569504,177.449051 213.191513,174.235657 
	C214.081406,169.638382 212.903793,167.270050 208.669495,166.155258 
	C200.343674,163.963303 198.245346,164.924652 194.139679,172.653641 
	C193.540619,173.781387 192.642990,174.750565 191.570663,175.882538 
	C194.753250,169.038681 198.248688,162.105438 201.973511,154.979675 
z"/>
<path fill="#DBC14B" opacity="1.000000" stroke="none" 
	d="
M361.974579,325.250916 
	C360.075165,324.345123 357.883759,323.109528 356.253204,323.630249 
	C355.183746,323.971802 354.925110,326.852203 354.303314,328.595581 
	C355.960938,329.085358 357.618591,329.575104 360.492279,330.424164 
	C359.103363,331.355621 357.705109,333.037811 356.632721,332.850861 
	C354.661194,332.507141 351.775421,331.463654 351.244568,329.997253 
	C350.015289,326.601593 350.752563,322.837494 354.262085,320.852417 
	C357.210602,319.184601 360.311951,319.202423 361.682007,321.920135 
	C365.146942,321.320374 368.377838,319.917114 371.199463,320.498840 
	C374.317139,321.141632 373.476074,326.000641 370.071564,327.063782 
	C368.699799,327.492126 367.257812,327.695587 365.847778,328.001434 
	C365.825439,328.468658 365.803070,328.935913 365.780731,329.403168 
	C367.700836,329.592438 369.620941,329.781677 371.541046,329.970947 
	C371.734100,330.367218 371.927185,330.763489 372.120239,331.159790 
	C370.250427,331.781372 368.347168,333.006531 366.517426,332.905151 
	C362.020172,332.656036 361.566071,329.295166 361.974579,325.250916 
z"/>
<path fill="#DBC14B" opacity="1.000000" stroke="none" 
	d="
M188.144379,323.146362 
	C187.116959,325.082825 186.539078,326.933258 185.824036,328.729065 
	C185.209167,330.273224 184.437729,331.755066 183.735519,333.264465 
	C183.103882,333.063965 182.472229,332.863495 181.840591,332.662994 
	C182.346481,328.584991 182.852371,324.506958 183.422226,319.913239 
	C188.372314,319.913239 192.997360,319.703125 197.578644,320.057953 
	C198.754318,320.149017 200.656876,321.971832 200.722153,323.087067 
	C200.883636,325.845154 200.296371,328.679626 199.722870,331.423370 
	C199.593460,332.042419 198.293610,332.416809 197.532547,332.903839 
	C197.084534,332.161163 196.214020,331.387817 196.265259,330.681335 
	C196.440765,328.262329 196.939819,325.866791 197.315460,323.462280 
	C196.725098,323.231873 196.134735,323.001434 195.544373,322.771027 
	C193.972061,326.320038 192.399734,329.869019 190.827423,333.417999 
	C190.426682,333.213562 190.025940,333.009125 189.625198,332.804688 
	C189.261581,329.548676 188.897980,326.292664 188.144379,323.146362 
z"/>
<path fill="#E6B944" opacity="1.000000" stroke="none" 
	d="
M328.993317,146.001450 
	C333.545441,145.914047 336.854675,148.081314 339.427979,152.141785 
	C338.646851,152.761841 337.794006,152.953964 336.569214,153.119415 
	C333.106079,154.616211 330.014832,156.139664 326.727478,157.844742 
	C326.113525,158.344406 325.695709,158.662445 324.867523,158.985794 
	C319.008789,159.050125 319.217896,153.817535 316.934265,150.930908 
	C316.950073,150.930573 316.953857,150.961975 317.169434,150.842010 
	C317.654358,150.517303 317.850922,150.257462 317.970245,149.972290 
	C317.965851,150.002060 317.941284,149.946960 318.323059,149.953140 
	C322.134338,148.640030 325.563843,147.320740 328.993317,146.001450 
z"/>
<path fill="#DBC14B" opacity="1.000000" stroke="none" 
	d="
M332.695801,323.508728 
	C327.689392,322.533997 328.059113,326.357056 327.122467,329.233215 
	C326.687042,330.570312 325.572906,331.686340 324.766388,332.902588 
	C324.482056,331.549622 323.883148,330.173981 323.978699,328.848389 
	C324.179932,326.056274 324.745117,323.290436 325.191101,320.312561 
	C328.567383,320.312561 331.741272,320.312561 335.404968,320.312561 
	C336.031647,322.237488 336.718903,324.348297 337.444061,326.575684 
	C339.166077,324.146545 340.788208,321.858307 342.410339,319.570068 
	C343.108704,319.966553 343.807098,320.363007 344.505463,320.759491 
	C342.641663,324.622070 340.861420,328.532654 338.731812,332.242645 
	C338.584961,332.498474 335.045807,331.687958 334.461090,330.619690 
	C333.392792,328.667999 333.355469,326.151978 332.695801,323.508728 
z"/>
<path fill="#4A4542" opacity="1.000000" stroke="none" 
	d="
M184.890442,265.157715 
	C184.569962,271.164154 183.819763,277.140442 183.004501,283.566284 
	C181.552704,283.689423 180.165970,283.362946 178.811722,283.044098 
	C177.727982,286.592041 176.784088,289.682159 175.504791,292.905884 
	C176.910400,281.546722 178.658295,270.054962 180.387711,258.560425 
	C180.832672,255.602844 181.219498,252.636536 181.855072,249.342529 
	C182.088470,252.057755 182.015335,255.108109 182.137482,258.150604 
	C182.238510,260.667542 180.262329,263.952515 184.890442,265.157715 
z"/>
<path fill="#C0832F" opacity="1.000000" stroke="none" 
	d="
M314.009186,140.981598 
	C315.787933,142.870514 317.566711,144.759430 319.625366,146.815247 
	C320.095795,147.026932 320.286407,147.071762 320.545715,147.449539 
	C319.723358,148.503998 318.832336,149.225479 317.941284,149.946960 
	C317.941284,149.946960 317.965851,150.002060 317.737427,150.073227 
	C317.323975,150.416916 317.138916,150.689453 316.953857,150.961975 
	C316.953857,150.961975 316.950073,150.930573 316.596588,150.975876 
	C313.229828,153.352493 310.216522,155.683807 306.929169,157.747620 
	C304.964050,151.952301 303.273010,146.424500 301.967865,140.960449 
	C303.307495,141.624802 304.371155,142.103622 305.195374,142.847702 
	C308.287231,145.638947 311.701294,144.949219 314.009186,140.981598 
z"/>
<path fill="#4A4542" opacity="1.000000" stroke="none" 
	d="
M335.288330,280.909149 
	C336.022736,274.594757 337.949524,268.213165 335.117310,261.368286 
	C335.897034,259.480103 336.719757,258.034576 337.456757,256.546570 
	C338.154572,255.137695 338.742279,252.459610 339.413147,252.448563 
	C343.873688,252.375061 348.343506,252.868073 352.920502,253.554337 
	C348.453400,253.931793 343.876099,253.931793 338.872894,253.931793 
	C340.284119,262.956238 341.633270,271.583740 342.888947,280.628784 
	C341.221191,279.934052 339.646851,278.821777 337.890015,277.580536 
	C337.194519,278.574036 336.403198,279.704437 335.288330,280.909149 
z"/>
<path fill="#DBC14B" opacity="1.000000" stroke="none" 
	d="
M140.690613,332.061035 
	C140.391830,328.274658 140.391830,324.797424 140.391830,320.156921 
	C140.727600,319.798096 142.036240,318.399536 143.802261,316.512177 
	C146.177948,323.830994 151.676346,318.889648 155.726181,320.343384 
	C153.504364,324.595398 151.304138,328.806091 149.103897,333.016815 
	C148.687103,332.931366 148.270294,332.845947 147.853485,332.760498 
	C148.060837,329.175629 148.268188,325.590729 148.481186,321.908020 
	C143.150299,324.008301 142.361542,327.111023 146.399887,332.755341 
	C144.122650,332.593231 142.556030,332.481720 140.690613,332.061035 
z"/>
<path fill="#DBC14B" opacity="1.000000" stroke="none" 
	d="
M131.584625,325.785461 
	C129.104507,324.366180 126.108788,323.312500 127.790413,320.168091 
	C128.805603,318.269836 130.848907,316.452972 132.844910,315.702820 
	C134.316498,315.149719 136.458755,316.381073 138.302185,316.817352 
	C138.182159,317.331177 138.062119,317.845032 137.942078,318.358856 
	C135.772339,318.653839 133.602600,318.948822 131.432861,319.243805 
	C131.335098,319.683014 131.237350,320.122223 131.139587,320.561462 
	C132.642212,321.671936 134.417557,322.558624 135.566818,323.959106 
	C136.608459,325.228455 137.926987,327.556946 137.419678,328.532074 
	C136.484314,330.330017 134.497574,332.119141 132.578842,332.709900 
	C130.800827,333.257355 128.529251,332.278870 126.507729,331.826202 
	C126.327202,331.785736 126.247498,330.163788 126.358406,330.133087 
	C127.202217,329.899231 128.120132,329.952148 128.986359,329.775513 
	C130.508072,329.465179 132.009415,329.055054 133.519302,328.686737 
	C132.992004,327.786987 132.464706,326.887268 131.584625,325.785461 
z"/>
<path fill="#443527" opacity="1.000000" stroke="none" 
	d="
M362.735413,224.202713 
	C366.403168,222.315765 369.806549,220.657013 373.573090,218.936951 
	C372.770355,220.350159 371.889984,222.299835 370.382446,223.205597 
	C366.625336,225.462982 362.608276,227.298264 358.648743,229.205734 
	C353.161560,231.849091 347.911072,230.901520 342.521271,228.478363 
	C337.718353,226.319061 332.571381,224.936783 327.685272,222.944229 
	C325.996399,222.255539 324.635406,220.762817 323.079559,219.280136 
	C329.235474,221.241974 335.720306,223.009430 341.566803,226.017532 
	C349.144989,229.916595 355.826263,229.222580 362.735413,224.202713 
z"/>
<path fill="#4A4542" opacity="1.000000" stroke="none" 
	d="
M282.677002,286.950256 
	C284.429169,275.261475 286.494324,263.450592 288.792786,251.321350 
	C289.142029,253.048401 289.185760,255.101135 289.392090,257.137390 
	C289.655640,259.738007 290.050446,262.325348 290.787354,265.011139 
	C290.771027,271.468903 290.356079,277.833954 289.908813,284.614563 
	C286.734650,282.387726 284.284637,282.395477 282.677002,286.950256 
z"/>
<path fill="#AB3820" opacity="1.000000" stroke="none" 
	d="
M235.756195,210.430481 
	C240.481171,209.811142 244.873093,209.299088 249.277405,209.147949 
	C251.086380,209.085892 252.922058,209.801880 254.810760,210.544861 
	C239.878708,212.951157 224.881500,214.976532 209.468063,216.708557 
	C209.070831,216.013504 209.089828,215.611786 209.108826,215.210083 
	C217.881912,213.701111 226.655014,212.192139 235.756195,210.430481 
z"/>
<path fill="#DBC14B" opacity="1.000000" stroke="none" 
	d="
M309.594055,316.146606 
	C309.413696,317.188782 309.091797,318.578400 308.404633,318.791809 
	C307.120758,319.190491 305.624847,318.906403 304.217163,318.906403 
	C303.987335,319.381409 303.757507,319.856415 303.527679,320.331421 
	C305.035492,321.494568 306.976807,322.384094 307.931335,323.896454 
	C308.921356,325.465149 309.861969,328.873901 309.246552,329.324799 
	C306.936432,331.017456 304.038239,332.029724 301.226837,332.824097 
	C300.580200,333.006775 299.402588,331.310150 298.469330,330.478394 
	C298.720459,330.161469 298.971588,329.844513 299.222748,329.527588 
	C300.495758,329.679840 301.807220,330.087616 303.029694,329.903717 
	C304.013184,329.755768 305.092285,329.049622 305.703339,328.261230 
	C305.919983,327.981689 305.078369,326.412811 304.379913,325.975494 
	C301.584534,324.225189 298.630707,322.513245 300.591248,318.589478 
	C302.450165,314.869080 305.863678,315.121735 309.594055,316.146606 
z"/>
<path fill="#DBC14B" opacity="1.000000" stroke="none" 
	d="
M176.604584,332.647644 
	C170.172958,333.284546 168.212921,332.266632 168.181046,328.395844 
	C168.131531,322.382690 170.734833,319.747986 176.448196,319.989166 
	C177.744400,320.043884 179.044876,319.997192 181.258240,319.997192 
	C179.225128,324.391113 182.156403,329.635010 176.604584,332.647644 
M173.085007,323.555511 
	C172.692947,325.592010 172.300903,327.628510 171.908844,329.665009 
	C172.692047,329.876465 173.475266,330.087952 174.258469,330.299408 
	C175.093430,328.269287 175.928375,326.239166 176.763336,324.209045 
	C175.756287,323.826660 174.749222,323.444275 173.085007,323.555511 
z"/>
<path fill="#DBC14B" opacity="1.000000" stroke="none" 
	d="
M217.136520,321.127045 
	C219.494614,320.422394 221.694519,320.058899 223.907547,319.813995 
	C224.533325,319.744781 225.723251,319.927856 225.764069,320.155151 
	C226.264755,322.943451 226.883789,325.763214 226.866669,328.571167 
	C226.857040,330.149872 225.726089,331.721710 225.100311,333.296661 
	C224.438980,333.102844 223.777649,332.909027 223.116318,332.715210 
	C223.312592,329.573792 223.508881,326.432373 223.705170,323.290955 
	C223.087540,323.078979 222.469910,322.866974 221.852280,322.654999 
	C220.964523,324.885956 220.164001,327.157349 219.156189,329.332703 
	C218.554550,330.631317 217.627808,331.779327 216.847198,332.995026 
	C216.495789,331.627991 215.796616,330.242401 215.868500,328.897980 
	C216.000809,326.423584 216.586548,323.973450 217.136520,321.127045 
z"/>
<path fill="#DBC14B" opacity="1.000000" stroke="none" 
	d="
M230.944061,332.189453 
	C227.337585,326.176086 229.553452,320.036652 235.133865,320.046570 
	C236.802582,320.049530 238.468155,321.822998 240.135162,322.785339 
	C238.953018,324.253693 237.945480,325.932037 236.524734,327.113464 
	C235.639572,327.849518 234.129837,327.834503 232.900391,328.156555 
	C232.892242,328.575317 232.884079,328.994110 232.875931,329.412872 
	C234.791061,329.568420 236.706192,329.723969 239.030869,329.912811 
	C237.314713,334.040802 234.266205,333.124390 230.944061,332.189453 
z"/>
<path fill="#DBC14B" opacity="1.000000" stroke="none" 
	d="
M320.570801,329.888550 
	C319.176392,333.496033 313.936951,334.325134 312.547852,331.082611 
	C311.587494,328.840912 311.752655,325.413696 312.841034,323.225647 
	C313.675293,321.548492 316.661194,320.454620 318.841461,320.135529 
	C319.964264,319.971191 322.283295,321.934662 322.468689,323.174744 
	C322.641235,324.329193 320.922089,326.109497 319.623230,327.035919 
	C318.519012,327.823517 316.826965,327.787018 315.394958,328.115143 
	C315.403351,328.633362 315.411743,329.151611 315.420135,329.669830 
	C317.035828,329.669830 318.651520,329.669830 320.570801,329.888550 
z"/>
<path fill="#C0832F" opacity="1.000000" stroke="none" 
	d="
M336.941162,153.146088 
	C337.794006,152.953964 338.646851,152.761841 339.718292,152.324066 
	C340.699432,152.988373 341.461975,153.898346 342.157166,155.481369 
	C342.422577,156.771790 342.755371,157.389160 343.088196,158.006531 
	C343.088165,158.006531 343.019897,157.926529 343.014587,158.303894 
	C342.604767,163.164856 337.165009,168.316010 331.806641,168.857574 
	C331.114899,166.393692 330.594299,164.199768 330.444122,161.985474 
	C336.115356,161.289200 337.530701,157.914047 336.941162,153.146088 
z"/>
<path fill="#DBC14B" opacity="1.000000" stroke="none" 
	d="
M273.478424,320.338623 
	C274.455139,321.204041 275.536713,322.268463 275.642090,323.422058 
	C275.823059,325.403748 275.394958,327.441040 275.198425,329.736664 
	C281.588165,328.854950 276.893616,320.489075 283.687531,319.709625 
	C282.976807,324.326294 282.359314,328.337616 281.752411,332.280029 
	C280.936249,332.509796 280.454132,332.795227 280.008881,332.746155 
	C277.383575,332.456848 272.576996,332.332062 272.507965,331.708740 
	C272.104767,328.066528 272.811768,324.301422 273.478424,320.338623 
z"/>
<path fill="#DBC14B" opacity="1.000000" stroke="none" 
	d="
M166.812744,321.618896 
	C166.650269,325.819977 166.650269,325.819977 159.902924,329.289154 
	C161.817032,329.548859 163.731140,329.808563 165.645248,330.068268 
	C165.835663,330.462982 166.026093,330.857666 166.216522,331.252380 
	C164.587524,331.854553 162.733292,333.251465 161.383362,332.868927 
	C159.455292,332.322479 156.509964,330.512787 156.471680,329.172028 
	C156.394608,326.472504 157.269043,322.924194 159.125793,321.261169 
	C160.513611,320.018188 164.057266,321.182251 166.812744,321.618896 
z"/>
<path fill="#DBC14B" opacity="1.000000" stroke="none" 
	d="
M269.614746,328.241089 
	C268.028870,332.742828 264.891754,333.946198 261.132355,332.621246 
	C257.675720,331.403015 257.220734,328.145142 258.225922,325.087341 
	C259.435211,321.408630 262.112549,319.294037 266.255341,320.007721 
	C271.244263,320.867188 269.940155,324.635529 269.614746,328.241089 
M263.591187,330.134827 
	C264.575623,328.053680 265.560059,325.972534 266.544495,323.891388 
	C265.576935,323.606903 264.609375,323.322418 263.641785,323.037933 
	C263.227997,325.297577 262.811401,327.556732 262.419678,329.820190 
	C262.411438,329.867615 262.690491,329.964752 263.591187,330.134827 
z"/>
<path fill="#413125" opacity="1.000000" stroke="none" 
	d="
M334.184357,196.928223 
	C339.477631,198.214890 344.770905,199.501556 350.432190,200.861023 
	C351.531433,202.671295 352.262695,204.408768 353.000092,206.556610 
	C349.589844,205.995911 346.173492,205.024811 341.993866,203.970078 
	C338.146912,202.853836 335.063171,201.821259 332.033936,200.464966 
	C332.787079,199.070251 333.485718,197.999237 334.184357,196.928223 
z"/>
<path fill="#DBC14B" opacity="1.000000" stroke="none" 
	d="
M249.918213,325.433594 
	C248.911072,322.278351 247.954102,319.525391 246.997116,316.772430 
	C247.486862,316.396301 247.976624,316.020142 248.466370,315.644012 
	C249.945908,317.340668 251.425446,319.037354 253.019455,320.865295 
	C254.680084,319.261841 256.664612,317.345673 258.649170,315.429504 
	C258.827240,315.690430 259.005341,315.951355 259.183441,316.212280 
	C257.193878,321.430511 255.244125,326.664795 253.154190,331.842499 
	C252.940964,332.370728 251.835999,332.896576 251.236099,332.807709 
	C250.669861,332.723785 249.833359,331.852081 249.797424,331.283813 
	C249.683289,329.478668 249.887314,327.653412 249.918213,325.433594 
z"/>
<path fill="#E09B39" opacity="1.000000" stroke="none" 
	d="
M331.977722,169.127548 
	C337.165009,168.316010 342.604767,163.164856 343.055176,158.270462 
	C343.733826,159.012817 344.366577,160.165985 344.983032,161.664368 
	C344.876709,163.218079 344.894470,164.447220 344.668121,165.629593 
	C344.410614,166.974640 344.333282,168.675674 343.482422,169.527740 
	C340.450165,172.564301 337.122650,175.306030 333.543701,178.057739 
	C332.779602,175.013260 332.378662,172.070404 331.977722,169.127548 
z"/>
<path fill="#DBC14B" opacity="1.000000" stroke="none" 
	d="
M204.234222,320.163635 
	C205.337860,318.114685 203.585419,314.250671 208.596176,315.180267 
	C207.709534,320.485992 206.929977,325.650543 205.906433,330.766266 
	C205.742706,331.584503 204.486374,332.184113 203.735138,332.884796 
	C203.302216,331.852356 202.413239,330.769592 202.520584,329.796783 
	C202.863022,326.693481 203.575638,323.631012 204.234222,320.163635 
z"/>
<path fill="#4A4542" opacity="1.000000" stroke="none" 
	d="
M277.653717,231.533417 
	C276.144287,241.887680 274.370544,252.160233 272.339264,262.726807 
	C271.803162,260.469727 271.060974,257.867004 271.338104,255.377716 
	C272.011902,249.324783 272.967041,243.284149 274.219757,237.324936 
	C274.658600,235.237350 276.298157,233.402176 277.653717,231.533417 
z"/>
<path fill="#DBC14B" opacity="1.000000" stroke="none" 
	d="
M285.666565,326.270386 
	C285.533386,321.834839 286.608124,319.011871 291.475067,319.988739 
	C292.156738,320.125549 292.919128,320.653870 293.290253,321.229248 
	C293.493652,321.544586 293.016632,322.809601 292.744568,322.844147 
	C288.833313,323.340820 289.509369,326.799896 288.419006,329.169037 
	C287.787811,330.540558 286.556366,331.635803 285.595032,332.855377 
	C285.463226,331.273132 285.293671,329.692566 285.222656,328.107605 
	C285.201508,327.635773 285.456818,327.151581 285.666565,326.270386 
z"/>
<path fill="#C5462B" opacity="1.000000" stroke="none" 
	d="
M255.003967,138.629105 
	C250.439529,135.931381 245.699860,133.350067 239.543747,136.044281 
	C239.111649,134.323669 239.074692,132.560059 239.040283,130.356827 
	C246.407272,128.784821 251.105896,132.700592 255.003967,138.629105 
z"/>
<path fill="#514C4D" opacity="1.000000" stroke="none" 
	d="
M159.333588,273.185425 
	C161.134689,268.988892 163.250580,264.967468 165.698090,260.990540 
	C166.029694,261.035095 165.977966,260.999084 165.977966,260.999084 
	C165.110184,267.107391 164.242401,273.215698 163.168854,279.659454 
	C161.858170,277.783447 160.753281,275.571991 159.333588,273.185425 
z"/>
<path fill="#4A4542" opacity="1.000000" stroke="none" 
	d="
M271.418518,265.042908 
	C270.382019,273.445618 268.990356,281.942719 267.346985,290.731750 
	C267.097229,287.344208 266.610382,283.581543 267.218811,280.005249 
	C268.074280,274.976776 269.742676,270.086578 271.418518,265.042908 
z"/>
<path fill="#DBC14B" opacity="1.000000" stroke="none" 
	d="
M346.984863,320.094696 
	C348.000977,320.737793 349.221375,321.508850 349.177307,322.199158 
	C348.987549,325.169830 348.616577,328.164825 347.888763,331.044067 
	C347.660858,331.945648 346.107483,332.512238 345.160828,333.232178 
	C344.731445,332.961792 344.302094,332.691437 343.872742,332.421051 
	C344.784271,328.342529 345.695801,324.264008 346.984863,320.094696 
z"/>
<path fill="#DBC14B" opacity="1.000000" stroke="none" 
	d="
M213.864380,323.084259 
	C213.462021,325.786438 213.338028,328.128082 212.686707,330.312439 
	C212.342529,331.466705 211.079956,332.347137 210.232040,333.351196 
	C209.763611,333.114044 209.295166,332.876923 208.826736,332.639771 
	C209.436157,328.829376 209.986816,325.007507 210.725525,321.222351 
	C210.823563,320.719971 211.877777,320.404236 212.489182,320.002075 
	C212.967316,320.887512 213.445465,321.772919 213.864380,323.084259 
z"/>
<path fill="#443527" opacity="1.000000" stroke="none" 
	d="
M154.546799,210.938110 
	C155.195236,211.463638 155.502747,211.972443 155.895630,212.777618 
	C152.219406,215.949478 147.983200,216.432465 143.626923,216.310226 
	C143.466019,215.765137 143.305099,215.220047 143.144196,214.674957 
	C146.831421,213.423767 150.518646,212.172592 154.546799,210.938110 
z"/>
<path fill="#874827" opacity="1.000000" stroke="none" 
	d="
M208.712555,215.193176 
	C209.089828,215.611786 209.070831,216.013504 209.051971,216.717331 
	C205.081009,217.978958 201.109894,218.938446 197.138794,219.897949 
	C197.008179,219.385147 196.877563,218.872360 196.746964,218.359558 
	C200.603409,217.298462 204.459854,216.237366 208.712555,215.193176 
z"/>
<path fill="#4A4542" opacity="1.000000" stroke="none" 
	d="
M289.616913,248.939148 
	C290.041779,244.256790 290.800720,239.453094 291.774536,234.321320 
	C291.309937,238.934738 290.630463,243.876282 289.616913,248.939148 
z"/>
<path fill="#443527" opacity="1.000000" stroke="none" 
	d="
M158.287750,213.270935 
	C162.086914,212.086075 166.163132,211.134720 170.642990,210.231750 
	C167.800858,214.896393 162.678619,212.248520 158.287750,213.270935 
z"/>
<path fill="#4A4542" opacity="1.000000" stroke="none" 
	d="
M358.826599,271.043213 
	C358.185638,273.117065 357.200226,275.145874 355.561340,278.520142 
	C355.127167,273.971619 354.827087,270.827576 354.609619,267.288208 
	C355.955536,268.261292 357.218842,269.629730 358.826599,271.043213 
z"/>
<path fill="#EBC348" opacity="1.000000" stroke="none" 
	d="
M318.323059,149.953140 
	C318.832336,149.225479 319.723358,148.503998 320.813324,147.570526 
	C323.480988,146.815796 325.949707,146.273026 328.705872,145.865860 
	C325.563843,147.320740 322.134338,148.640030 318.323059,149.953140 
z"/>
<path fill="#4A4542" opacity="1.000000" stroke="none" 
	d="
M366.063538,280.857635 
	C366.489441,279.178253 367.280609,277.518524 368.311676,275.355499 
	C369.116943,277.588531 369.647186,279.058899 370.117676,280.840576 
	C368.848175,281.060333 367.638458,280.968811 366.063538,280.857635 
z"/>
<path fill="#514C4D" opacity="1.000000" stroke="none" 
	d="
M162.399582,282.053223 
	C162.453033,284.089325 162.185379,286.247681 161.786560,288.731628 
	C158.614792,286.567688 161.052414,284.414978 162.399582,282.053223 
z"/>
<path fill="#4A4542" opacity="1.000000" stroke="none" 
	d="
M296.107391,294.226624 
	C298.219086,294.748627 300.371460,295.626373 302.763397,296.754700 
	C300.718018,296.197632 298.433044,295.389984 296.107391,294.226624 
z"/>
<path fill="#4A4542" opacity="1.000000" stroke="none" 
	d="
M370.799194,287.248627 
	C371.611938,288.778931 372.191956,290.566864 372.712585,292.713074 
	C371.957581,291.216309 371.262054,289.361267 370.799194,287.248627 
z"/>
<path fill="#4A4542" opacity="1.000000" stroke="none" 
	d="
M354.218750,261.739899 
	C353.723511,259.929810 353.452209,257.855774 353.294434,255.388428 
	C353.752838,257.155396 354.097748,259.315643 354.218750,261.739899 
z"/>
<path fill="#4A4542" opacity="1.000000" stroke="none" 
	d="
M306.060760,297.616425 
	C307.698059,297.306091 309.458862,297.309631 311.652771,297.398560 
	C310.118652,297.632751 308.151459,297.781525 306.060760,297.616425 
z"/>
<path fill="#4A4542" opacity="1.000000" stroke="none" 
	d="
M267.107544,296.271088 
	C268.763885,295.915558 270.487457,295.912201 272.624542,296.034668 
	C271.285400,298.871307 269.279633,298.375427 267.107544,296.271088 
z"/>
<path fill="#4A4542" opacity="1.000000" stroke="none" 
	d="
M342.741455,283.272827 
	C343.308746,284.435883 343.661285,285.864929 343.941711,287.663635 
	C343.421936,286.535095 342.974304,285.036926 342.741455,283.272827 
z"/>
<path fill="#4A4542" opacity="1.000000" stroke="none" 
	d="
M360.343567,290.916626 
	C360.792847,289.412262 361.580017,287.821564 362.655182,286.062256 
	C362.189270,287.539215 361.435364,289.184784 360.343567,290.916626 
z"/>
<path fill="#4A4542" opacity="1.000000" stroke="none" 
	d="
M291.740692,231.802429 
	C289.252716,231.995209 286.579498,231.831436 283.486786,231.511185 
	C285.896667,231.385101 288.726074,231.415497 291.740692,231.802429 
z"/>
<path fill="#EFC849" opacity="1.000000" stroke="none" 
	d="
M261.878479,153.854248 
	C261.520813,153.864899 261.635193,153.431122 261.629517,153.207947 
	C262.169952,152.055084 262.716064,151.125412 263.556702,150.064133 
	C263.312836,151.236221 262.774475,152.539902 261.878479,153.854248 
z"/>
<path fill="#C5462B" opacity="1.000000" stroke="none" 
	d="
M257.519135,143.607941 
	C256.732758,142.544159 255.884003,141.113892 255.039047,139.302002 
	C255.847488,140.360733 256.652130,141.801102 257.519135,143.607941 
z"/>
<path fill="#4A4542" opacity="1.000000" stroke="none" 
	d="
M353.024750,296.539551 
	C353.728333,296.189117 354.510651,296.122406 355.675232,296.162048 
	C355.072845,296.453400 354.088165,296.638367 353.024750,296.539551 
z"/>
<path fill="#4A4542" opacity="1.000000" stroke="none" 
	d="
M380.011353,296.626099 
	C380.718262,296.272736 381.504822,296.196838 382.678101,296.219543 
	C382.073547,296.513245 381.082275,296.708405 380.011353,296.626099 
z"/>
<path fill="#4A4542" opacity="1.000000" stroke="none" 
	d="
M343.820038,290.189636 
	C344.320282,290.797546 344.605957,291.606171 344.813782,292.735718 
	C344.359131,292.167877 343.982300,291.279083 343.820038,290.189636 
z"/>
<path fill="#4A4542" opacity="1.000000" stroke="none" 
	d="
M323.135437,294.907104 
	C323.608887,294.234497 324.446564,293.595367 325.601990,292.899292 
	C325.113068,293.541748 324.306366,294.241180 323.135437,294.907104 
z"/>
<path fill="#4A4542" opacity="1.000000" stroke="none" 
	d="
M182.702881,246.036621 
	C182.514740,245.528625 182.573013,244.974213 182.828400,244.210922 
	C183.000107,244.664764 182.974716,245.327484 182.702881,246.036621 
z"/>
<path fill="#4A4542" opacity="1.000000" stroke="none" 
	d="
M374.992126,296.587921 
	C375.403503,296.233551 375.873230,296.123230 376.695160,296.115601 
	C376.381714,296.422852 375.716095,296.627411 374.992126,296.587921 
z"/>
<path fill="#4A4542" opacity="1.000000" stroke="none" 
	d="
M344.705200,295.186340 
	C345.129791,295.255585 345.387756,295.486938 345.813843,295.916748 
	C345.500824,295.859650 345.019714,295.604034 344.705200,295.186340 
z"/>
<path fill="#E09B39" opacity="1.000000" stroke="none" 
	d="
M343.112274,157.628021 
	C342.755371,157.389160 342.422577,156.771790 342.068726,155.789108 
	C342.410583,156.032379 342.773468,156.640961 343.112274,157.628021 
z"/>
<path fill="#4A4542" opacity="1.000000" stroke="none" 
	d="
M170.926727,235.372803 
	C170.838898,235.594208 170.667419,235.659515 170.245224,235.611298 
	C170.277359,235.404099 170.560196,235.310410 170.926727,235.372803 
z"/>
<path fill="#443527" opacity="1.000000" stroke="none" 
	d="
M156.877197,210.038742 
	C156.964432,210.326950 156.754120,210.504120 156.238525,210.532501 
	C156.179428,210.253387 156.394897,210.101379 156.877197,210.038742 
z"/>
<path fill="#4A4542" opacity="1.000000" stroke="none" 
	d="
M173.939850,235.462830 
	C173.846588,235.686218 173.670288,235.745270 173.238098,235.693405 
	C173.273727,235.487823 173.565262,235.393158 173.939850,235.462830 
z"/>
<path fill="#4A4542" opacity="1.000000" stroke="none" 
	d="
M166.681793,236.028015 
	C166.849289,236.294006 166.673187,236.552933 166.201508,236.867371 
	C166.136673,236.681168 166.280746,236.380524 166.681793,236.028015 
z"/>
<path fill="#514C4D" opacity="1.000000" stroke="none" 
	d="
M148.455688,291.946655 
	C148.116455,291.672821 148.213150,291.377350 148.753571,291.064789 
	C149.056915,291.331238 148.955017,291.623657 148.455688,291.946655 
z"/>
<path fill="#514C4D" opacity="1.000000" stroke="none" 
	d="
M166.054474,261.054535 
	C166.137421,261.011536 166.195572,260.949097 166.115845,260.942871 
	C165.977966,260.999084 166.029694,261.035095 166.054474,261.054535 
z"/>
<path fill="#2E292A" opacity="1.000000" stroke="none" 
	d="
M320.273865,263.609863 
	C324.502747,270.030273 323.402527,279.173676 318.254303,283.981964 
	C314.572479,287.420654 310.364594,287.601959 306.229218,285.483948 
	C302.246643,283.444214 301.806915,279.517303 302.503632,275.506378 
	C304.461060,264.237549 310.864990,259.810760 320.273865,263.609863 
z"/>
<path fill="#292222" opacity="1.000000" stroke="none" 
	d="
M331.806641,168.857574 
	C332.378662,172.070404 332.779602,175.013260 333.318787,178.390717 
	C333.685760,184.551239 333.914398,190.277176 334.163696,196.465668 
	C333.485718,197.999237 332.787079,199.070251 331.704163,200.463715 
	C330.899353,200.665634 330.478851,200.545120 329.982086,200.200500 
	C329.281372,199.942261 328.656921,199.908127 327.635223,199.863892 
	C325.141632,199.454163 323.045227,199.054565 320.907288,198.402557 
	C320.242828,198.101303 319.619934,198.052429 318.997040,198.003571 
	C318.556244,197.917725 318.115479,197.831894 317.293915,197.382462 
	C316.283112,196.984161 315.653107,196.949448 315.023071,196.914734 
	C314.577850,196.886337 314.132599,196.857925 313.364166,196.340256 
	C313.042542,193.569366 313.044128,191.287735 313.040771,188.661163 
	C313.512268,186.800568 313.988678,185.284927 314.769318,183.797913 
	C315.485168,183.618927 315.896820,183.411331 316.308472,183.203735 
	C315.917877,182.797485 315.527252,182.391205 315.150940,181.605316 
	C318.536133,173.810638 321.907043,166.395569 325.277924,158.980484 
	C325.695709,158.662445 326.113525,158.344406 327.036316,157.999451 
	C328.385437,159.316971 329.229553,160.661407 330.073669,162.005829 
	C330.594299,164.199768 331.114899,166.393692 331.806641,168.857574 
z"/>
<path fill="#E0AA3E" opacity="1.000000" stroke="none" 
	d="
M320.948853,198.654938 
	C323.045227,199.054565 325.141632,199.454163 327.844116,200.050507 
	C328.986237,200.306366 329.522278,200.365494 330.058319,200.424622 
	C330.478851,200.545120 330.899353,200.665634 331.649658,200.787415 
	C335.063171,201.821259 338.146912,202.853836 341.607788,203.979538 
	C339.970367,204.093170 337.919373,204.358978 335.951172,204.066788 
	C333.891357,203.761032 331.911133,202.919113 330.718597,202.559555 
	C329.544495,205.462646 328.526642,207.979385 327.255432,210.745926 
	C325.261963,210.669693 323.521790,210.343643 321.333496,209.696686 
	C320.256104,208.923370 319.626892,208.470963 318.997650,208.018539 
	C317.231720,207.382706 315.465820,206.746872 313.348724,206.069031 
	C312.971497,202.356995 311.997314,197.985123 318.638123,198.943665 
	C319.041229,198.935394 319.014282,198.866501 319.156189,199.081467 
	C319.869812,199.227921 320.441528,199.159393 320.994629,198.982269 
	C320.975952,198.873672 320.948853,198.654938 320.948853,198.654938 
z"/>
<path fill="#EFC849" opacity="1.000000" stroke="none" 
	d="
M200.157532,199.059418 
	C211.644043,196.982605 223.426331,194.442963 235.342224,193.315048 
	C247.523254,192.162033 259.835327,192.393799 272.988586,192.044678 
	C278.922455,192.365738 283.957825,192.661469 289.233459,193.107529 
	C289.989136,193.483398 290.504517,193.708939 291.019867,193.934479 
	C289.292908,194.284790 287.532593,195.056229 285.843933,194.922546 
	C258.299194,192.742218 230.959305,193.930588 203.851212,199.512619 
	C202.802917,199.728470 201.627914,199.329025 200.157532,199.059418 
z"/>
<path fill="#413125" opacity="1.000000" stroke="none" 
	d="
M291.445648,193.907501 
	C290.504517,193.708939 289.989136,193.483398 289.307495,192.776093 
	C290.464966,191.518692 291.788727,190.743011 293.530457,190.004120 
	C298.466614,190.646423 302.997253,191.173462 307.498260,191.887207 
	C310.161285,192.309479 312.312286,192.122406 313.045685,189.006104 
	C313.044128,191.287735 313.042542,193.569366 313.046631,196.228455 
	C305.992004,195.697449 298.931732,194.788986 291.445648,193.907501 
z"/>
<path fill="#413125" opacity="1.000000" stroke="none" 
	d="
M319.001495,198.228973 
	C319.619934,198.052429 320.242828,198.101303 320.907288,198.402557 
	C320.948853,198.654938 320.975952,198.873672 320.661987,198.941559 
	C319.903442,198.961807 319.458862,198.914154 319.014282,198.866501 
	C319.014282,198.866501 319.041229,198.935394 319.072296,198.915024 
	C319.103363,198.894653 319.005951,198.454376 319.001495,198.228973 
z"/>
<path fill="#413125" opacity="1.000000" stroke="none" 
	d="
M315.231201,197.100143 
	C315.653107,196.949448 316.283112,196.984161 316.983582,197.251617 
	C316.515778,197.418106 315.977539,197.351837 315.231201,197.100143 
z"/>
<path fill="#282021" opacity="1.000000" stroke="none" 
	d="
M212.045685,184.396484 
	C213.798843,178.447433 215.523666,172.874176 217.265030,166.943497 
	C220.398438,160.937714 223.084747,154.986847 226.771606,149.738876 
	C229.603531,145.707794 233.695953,142.562256 237.578934,138.955200 
	C238.112152,139.473801 238.294250,140.060089 238.762421,141.205200 
	C243.694626,150.674011 244.438919,160.318863 244.021896,170.320358 
	C243.484116,174.033920 243.312027,177.540665 243.109406,181.419724 
	C243.122879,182.535767 243.166885,183.279495 243.166107,184.373260 
	C243.469681,185.708511 243.818024,186.693726 244.153625,187.739319 
	C244.140869,187.799698 244.069382,187.900253 244.069382,187.900238 
	C241.644547,188.920471 239.298843,190.504852 236.780457,190.858093 
	C228.273712,192.051270 219.708282,192.833954 211.155716,193.676086 
	C210.532471,193.737473 209.832443,193.018814 209.075134,192.313156 
	C209.993881,189.566422 211.005615,187.169342 212.045685,184.396484 
z"/>
<path fill="#EBC348" opacity="1.000000" stroke="none" 
	d="
M319.061279,208.325195 
	C319.626892,208.470963 320.256104,208.923370 320.951904,209.682159 
	C320.387268,209.536301 319.756104,209.084076 319.061279,208.325195 
z"/>
<path fill="#292222" opacity="1.000000" stroke="none" 
	d="
M293.112427,189.967346 
	C291.788727,190.743011 290.464966,191.518692 289.067200,192.625793 
	C283.957825,192.661469 278.922455,192.365738 273.452698,191.966949 
	C273.011719,190.828873 273.005157,189.793839 273.007874,188.124573 
	C273.017181,187.490356 272.940216,187.003281 273.071106,186.634506 
	C273.902039,183.191574 274.602112,180.117432 275.648865,176.953766 
	C277.024323,172.918137 278.053009,168.972031 279.081726,165.025925 
	C279.215363,164.471268 279.348969,163.916595 279.972870,163.123856 
	C280.579285,162.237503 280.695404,161.589233 280.811554,160.940964 
	C283.535034,155.536896 286.258484,150.132812 289.087524,144.396545 
	C291.917938,141.441711 294.642822,138.819092 297.951843,136.164627 
	C299.551331,137.720749 300.566650,139.308731 301.581970,140.896698 
	C303.273010,146.424500 304.964050,151.952301 306.794006,158.070389 
	C302.326111,169.096237 297.719269,179.531784 293.112427,189.967346 
z"/>
<path fill="#EFC849" opacity="1.000000" stroke="none" 
	d="
M275.302155,177.043274 
	C274.602112,180.117432 273.902039,183.191574 272.735229,186.668793 
	C271.857361,187.248917 271.446289,187.425980 271.035187,187.603058 
	C262.994995,187.480896 254.954819,187.358734 246.471390,186.853546 
	C246.088638,185.758331 246.149124,185.046173 246.214752,184.238907 
	C246.219910,184.143814 246.041901,184.076035 246.330048,184.064514 
	C246.772293,183.708008 246.926392,183.363052 247.052490,183.037979 
	C247.024506,183.057877 247.073883,183.105957 247.073883,183.105957 
	C250.742935,175.462738 254.411972,167.819519 258.366211,160.025223 
	C260.173737,160.583176 261.644470,161.731583 263.228210,161.917572 
	C267.713776,162.444336 272.209961,162.650970 274.388275,167.945389 
	C275.711273,166.910812 276.715698,166.125336 277.985199,165.627991 
	C277.267548,169.625168 276.284851,173.334229 275.302155,177.043274 
z"/>
<path fill="#443527" opacity="1.000000" stroke="none" 
	d="
M275.648865,176.953766 
	C276.284851,173.334229 277.267548,169.625168 278.310669,165.535400 
	C278.371063,165.154694 278.725403,165.084885 278.903564,165.055405 
	C278.053009,168.972031 277.024323,172.918137 275.648865,176.953766 
z"/>
<path fill="#EFC849" opacity="1.000000" stroke="none" 
	d="
M259.115479,159.702362 
	C259.275574,158.531494 259.797363,157.242966 260.596008,155.715912 
	C260.407684,156.846481 259.942444,158.215591 259.115479,159.702362 
z"/>
<path fill="#443527" opacity="1.000000" stroke="none" 
	d="
M280.566711,161.105713 
	C280.695404,161.589233 280.579285,162.237503 280.174744,162.917404 
	C280.031525,162.389511 280.176727,161.829987 280.566711,161.105713 
z"/>
<path fill="#AF7228" opacity="1.000000" stroke="none" 
	d="
M301.967865,140.960449 
	C300.566650,139.308731 299.551331,137.720749 298.235992,135.984039 
	C303.926880,132.105286 307.425659,133.119415 313.843201,140.689758 
	C311.701294,144.949219 308.287231,145.638947 305.195374,142.847702 
	C304.371155,142.103622 303.307495,141.624802 301.967865,140.960449 
z"/>
<path fill="#AB3820" opacity="1.000000" stroke="none" 
	d="
M246.209595,184.334000 
	C246.149124,185.046173 246.088638,185.758331 246.001404,186.830170 
	C245.511780,187.395828 245.048935,187.601807 244.327728,187.854019 
	C244.069382,187.900253 244.140869,187.799698 244.115265,187.420288 
	C243.796738,186.035004 243.503799,185.029114 243.210876,184.023224 
	C243.166885,183.279495 243.122879,182.535767 243.415176,181.401810 
	C244.160217,180.996582 244.568985,180.981598 244.999390,181.335724 
	C245.417221,182.581238 245.813400,183.457626 246.209595,184.334000 
z"/>
<path fill="#874827" opacity="1.000000" stroke="none" 
	d="
M271.256592,187.724930 
	C271.446289,187.425980 271.857361,187.248917 272.604340,187.037567 
	C272.940216,187.003281 273.017181,187.490356 273.003540,187.736420 
	C272.485901,187.937256 271.981964,187.892029 271.256592,187.724930 
z"/>
<path fill="#C03D22" opacity="1.000000" stroke="none" 
	d="
M246.214752,184.238907 
	C245.813400,183.457626 245.417221,182.581238 244.998230,180.889221 
	C244.779480,176.753571 244.583527,173.433548 244.387589,170.113541 
	C244.438919,160.318863 243.694626,150.674011 239.011200,141.394592 
	C240.551453,140.104584 242.839340,138.046799 243.560471,138.497253 
	C245.120636,139.471817 246.589661,141.635605 246.838470,143.482391 
	C247.821701,150.780594 247.300980,158.435837 249.294739,165.398361 
	C251.144867,171.859467 247.578339,176.679504 247.049896,182.700928 
	C247.073883,183.105957 247.024506,183.057877 246.830536,183.161713 
	C246.438339,183.535721 246.240128,183.805878 246.041901,184.076035 
	C246.041901,184.076035 246.219910,184.143814 246.214752,184.238907 
z"/>
<path fill="#EBC348" opacity="1.000000" stroke="none" 
	d="
M293.530457,190.004120 
	C297.719269,179.531784 302.326111,169.096237 307.068115,158.337891 
	C310.216522,155.683807 313.229828,153.352493 316.580811,150.976227 
	C319.217896,153.817535 319.008789,159.050125 324.867523,158.985794 
	C321.907043,166.395569 318.536133,173.810638 314.974243,181.876160 
	C314.677185,182.940826 314.571136,183.355057 314.465088,183.769287 
	C313.988678,185.284927 313.512268,186.800568 313.040771,188.661163 
	C312.312286,192.122406 310.161285,192.309479 307.498260,191.887207 
	C302.997253,191.173462 298.466614,190.646423 293.530457,190.004120 
z"/>
<path fill="#AF7228" opacity="1.000000" stroke="none" 
	d="
M330.444092,161.985489 
	C329.229553,160.661407 328.385437,159.316971 327.232452,157.817825 
	C330.014832,156.139664 333.106079,154.616211 336.569214,153.119415 
	C337.530701,157.914047 336.115356,161.289200 330.444092,161.985489 
z"/>
<path fill="#EBC348" opacity="1.000000" stroke="none" 
	d="
M317.169434,150.842010 
	C317.138916,150.689453 317.323975,150.416916 317.741821,150.043457 
	C317.850922,150.257462 317.654358,150.517303 317.169434,150.842010 
z"/>
<path fill="#413125" opacity="1.000000" stroke="none" 
	d="
M173.413574,323.308716 
	C174.749222,323.444275 175.756287,323.826660 176.763336,324.209045 
	C175.928375,326.239166 175.093430,328.269287 174.258469,330.299408 
	C173.475266,330.087952 172.692047,329.876465 171.908844,329.665009 
	C172.300903,327.628510 172.692947,325.592010 173.413574,323.308716 
z"/>
<path fill="#2E292A" opacity="1.000000" stroke="none" 
	d="
M263.213379,330.086761 
	C262.690491,329.964752 262.411438,329.867615 262.419678,329.820190 
	C262.811401,327.556732 263.227997,325.297577 263.641785,323.037933 
	C264.609375,323.322418 265.576935,323.606903 266.544495,323.891388 
	C265.560059,325.972534 264.575623,328.053680 263.213379,330.086761 
z"/>
<path fill="#413125" opacity="1.000000" stroke="none" 
	d="
M314.769318,183.797913 
	C314.571136,183.355057 314.677185,182.940826 314.959961,182.255768 
	C315.527252,182.391205 315.917877,182.797485 316.308472,183.203735 
	C315.896820,183.411331 315.485168,183.618927 314.769318,183.797913 
z"/>
<path fill="#413125" opacity="1.000000" stroke="none" 
	d="
M329.982086,200.200500 
	C329.522278,200.365494 328.986237,200.306366 328.241333,200.060623 
	C328.656921,199.908127 329.281372,199.942261 329.982086,200.200500 
z"/>
<path fill="#EBC348" opacity="1.000000" stroke="none" 
	d="
M319.156189,199.081467 
	C319.458862,198.914154 319.903442,198.961807 320.680664,199.050171 
	C320.441528,199.159393 319.869812,199.227921 319.156189,199.081467 
z"/>
<path fill="#874827" opacity="1.000000" stroke="none" 
	d="
M244.021896,170.320358 
	C244.583527,173.433548 244.779480,176.753571 244.976578,180.520096 
	C244.568985,180.981598 244.160217,180.996582 243.445694,181.029495 
	C243.312027,177.540665 243.484116,174.033920 244.021896,170.320358 
z"/>
<path fill="#874827" opacity="1.000000" stroke="none" 
	d="
M243.166107,184.373260 
	C243.503799,185.029114 243.796738,186.035004 244.128021,187.359924 
	C243.818024,186.693726 243.469681,185.708511 243.166107,184.373260 
z"/>
<path fill="#AB3820" opacity="1.000000" stroke="none" 
	d="
M246.330048,184.064514 
	C246.240128,183.805878 246.438339,183.535721 246.858521,183.141815 
	C246.926392,183.363052 246.772293,183.708008 246.330048,184.064514 
z"/>
</svg>